<svg width="24" height="24" viewBox="0 0 24 24" fill="none" xmlns="http://www.w3.org/2000/svg">
<g clip-path="url(#clip0_2533_870)">
<path d="M12 12.9999C10.06 12.9999 9.08997 12.0299 9.08997 10.0899C9.08997 8.14993 10.06 7.17993 12 7.17993C13.94 7.17993 14.91 8.14993 14.91 10.0899C14.91 12.0299 13.94 12.9999 12 12.9999ZM12 10.9999C12.6066 10.9999 12.91 10.6966 12.91 10.0899C12.91 9.48327 12.6066 9.17993 12 9.17993C11.3933 9.17993 11.09 9.48327 11.09 10.0899C11.09 10.6966 11.3933 10.9999 12 10.9999Z" fill="#F6F7FB"/>
<path d="M8.14001 16.7699C8.14001 15.7039 8.51701 14.7939 9.27101 14.0399C10.0243 13.2866 10.934 12.9099 12 12.9099C13.066 12.9099 13.9757 13.2869 14.729 14.0409C15.483 14.7942 15.86 15.7039 15.86 16.7699H13.86C13.86 16.2559 13.6783 15.8176 13.315 15.4549C12.9517 15.0916 12.5133 14.9099 12 14.9099C11.4867 14.9099 11.0483 15.0916 10.685 15.4549C10.3217 15.8176 10.14 16.2559 10.14 16.7699H8.14001Z" fill="#F6F7FB"/>
<path d="M23.5 14.91H21.134C20.9713 15.4253 20.7657 15.923 20.517 16.403L22.184 18.07L18.07 22.184L16.403 20.517C15.923 20.7657 15.4253 20.9713 14.91 21.134V23.5H9.09V21.134C8.57467 20.9713 8.077 20.7657 7.597 20.517L5.93 22.184L1.816 18.07L3.483 16.403C3.23433 15.923 3.02867 15.4253 2.866 14.91H0.5V9.09H2.866C3.02867 8.57467 3.23433 8.077 3.483 7.597L1.816 5.93L5.93 1.816L7.597 3.483C8.077 3.23433 8.57467 3.02867 9.09 2.866V0.5H14.91V2.866C15.4253 3.02867 15.923 3.23433 16.403 3.483L18.07 1.816L22.184 5.93L20.517 7.597C20.7657 8.077 20.9713 8.57467 21.134 9.09H23.5V14.91ZM21.5 12.91V11.09H19.571L19.395 10.311C19.205 9.473 18.881 8.69 18.423 7.962L17.999 7.287L19.356 5.93L18.07 4.644L16.713 6.001L16.038 5.577C15.31 5.119 14.527 4.795 13.689 4.605L12.91 4.429V2.5H11.09V4.429L10.311 4.605C9.473 4.795 8.69 5.119 7.962 5.577L7.287 6.001L5.93 4.644L4.644 5.93L6.001 7.287L5.577 7.962C5.119 8.69 4.795 9.473 4.605 10.311L4.429 11.09H2.5V12.91H4.429L4.605 13.689C4.795 14.527 5.119 15.31 5.577 16.038L6.001 16.713L4.644 18.07L5.93 19.356L7.287 17.999L7.962 18.423C8.69 18.881 9.473 19.205 10.311 19.395L11.09 19.571V21.5H12.91V19.571L13.689 19.395C14.527 19.205 15.31 18.881 16.038 18.423L16.713 17.999L18.07 19.356L19.356 18.07L17.999 16.713L18.423 16.038C18.881 15.31 19.205 14.527 19.395 13.689L19.571 12.91H21.5Z" fill="#F6F7FB"/>
</g>
<defs>
<clipPath id="clip0_2533_870">
<rect width="24" height="24" fill="white"/>
</clipPath>
</defs>
</svg>
