<svg width="24" height="24" viewBox="0 0 24 24" fill="none" xmlns="http://www.w3.org/2000/svg">
<path d="M2 5C2 3.343 3.343 2 5 2H13C14.657 2 16 3.343 16 5V8H14V5C14 4.448 13.552 4 13 4H5C4.828 4 4.666 4.043 4.525 4.12L8.196 5.716C9.291 6.192 10 7.273 10 8.467V20H13C13.552 20 14 19.552 14 19V16H16V19C16 20.657 14.657 22 13 22H5C3.343 22 2 20.657 2 19V5Z" fill="#F6F7FB"/>
<path d="M18.168 14.4451C17.862 14.9051 17.986 15.5261 18.445 15.8321C18.905 16.1381 19.526 16.0141 19.832 15.5551L22.202 12.0001L19.832 8.44512C19.526 7.98612 18.905 7.86212 18.445 8.16812C17.986 8.47412 17.862 9.09512 18.168 9.55512L19.131 11.0001H12V13.0001H19.131L18.168 14.4451Z" fill="#F6F7FB"/>
</svg>
