<svg width="24" height="24" viewBox="0 0 24 24" fill="none" xmlns="http://www.w3.org/2000/svg">
<path d="M21.751 21.751C21.419 22.083 20.881 22.083 20.549 21.751L17.186 18.388C15.554 19.156 13.766 19.53 12 19.5C7.439 19.422 2.862 17.078 1 12C1.901 9.542 3.321 7.7 5.255 6.457L2.249 3.451C1.917 3.119 1.917 2.581 2.249 2.249C2.581 1.917 3.119 1.917 3.451 2.249L21.751 20.549C22.083 20.881 22.083 21.419 21.751 21.751ZM14.883 16.085L13.434 14.636C13.008 14.868 12.519 15 12 15C10.343 15 9 13.657 9 12C9 11.481 9.132 10.992 9.364 10.566L7.914 9.117C7.338 9.931 7 10.926 7 12C7 14.761 9.239 17 12 17C13.074 17 14.068 16.661 14.883 16.085Z" fill="#F6F7FB"/>
<path d="M20.005 16.505C21.282 15.337 22.328 13.832 23 12C21.148 6.951 16.496 4.5 12 4.5C10.835 4.5 9.64797 4.664 8.49597 4.995L10.677 7.177C11.098 7.062 11.542 7 12 7C14.761 7 17 9.239 17 12C17 12.458 16.938 12.901 16.823 13.323L20.005 16.505Z" fill="#F6F7FB"/>
</svg>
