<svg width="32" height="32" viewBox="0 0 32 32" fill="none" xmlns="http://www.w3.org/2000/svg">
<path d="M26.667 10.083H5.33301C5.12634 10.083 4.94967 10.01 4.80301 9.86401C4.65634 9.71734 4.58301 9.54034 4.58301 9.33301C4.58301 9.12634 4.65634 8.94967 4.80301 8.80301C4.94967 8.65634 5.12634 8.58301 5.33301 8.58301H26.667C26.8737 8.58301 27.0503 8.65634 27.197 8.80301C27.3437 8.94967 27.417 9.12634 27.417 9.33301C27.417 9.54034 27.3437 9.71734 27.197 9.86401C27.0503 10.01 26.8737 10.083 26.667 10.083Z" fill="#F6F7FB"/>
<path d="M26.667 16.75H5.33301C5.12634 16.75 4.94967 16.6767 4.80301 16.53C4.65634 16.384 4.58301 16.2073 4.58301 16C4.58301 15.7927 4.65634 15.616 4.80301 15.47C4.94967 15.3233 5.12634 15.25 5.33301 15.25H26.667C26.8737 15.25 27.0503 15.3233 27.197 15.47C27.3437 15.616 27.417 15.7927 27.417 16C27.417 16.2073 27.3437 16.384 27.197 16.53C27.0503 16.6767 26.8737 16.75 26.667 16.75Z" fill="#F6F7FB"/>
<path d="M26.667 23.417H5.33301C5.12634 23.417 4.94967 23.3437 4.80301 23.197C4.65634 23.0503 4.58301 22.8737 4.58301 22.667C4.58301 22.4597 4.65634 22.2827 4.80301 22.136C4.94967 21.99 5.12634 21.917 5.33301 21.917H26.667C26.8737 21.917 27.0503 21.99 27.197 22.136C27.3437 22.2827 27.417 22.4597 27.417 22.667C27.417 22.8737 27.3437 23.0503 27.197 23.197C27.0503 23.3437 26.8737 23.417 26.667 23.417Z" fill="#F6F7FB"/>
</svg>
