<svg width="24" height="24" viewBox="0 0 24 24" fill="none" xmlns="http://www.w3.org/2000/svg">
<path d="M13.9453 1.25C12.5778 1.24998 11.4754 1.24996 10.6085 1.36652C9.70836 1.48754 8.95048 1.74643 8.34856 2.34835C7.82363 2.87328 7.55839 3.51836 7.41916 4.27635C7.28387 5.01291 7.25799 5.9143 7.25196 6.99583C7.24966 7.41003 7.58357 7.74768 7.99778 7.74999C8.41199 7.7523 8.74964 7.41838 8.75194 7.00418C8.75803 5.91068 8.78643 5.1356 8.89448 4.54735C8.99859 3.98054 9.16577 3.65247 9.40922 3.40901C9.68599 3.13225 10.0746 2.9518 10.8083 2.85315C11.5637 2.75159 12.5648 2.75 14.0002 2.75H15.0002C16.4356 2.75 17.4367 2.75159 18.1921 2.85315C18.9259 2.9518 19.3144 3.13225 19.5912 3.40901C19.868 3.68577 20.0484 4.07435 20.1471 4.80812C20.2486 5.56347 20.2502 6.56459 20.2502 8V16C20.2502 17.4354 20.2486 18.4365 20.1471 19.1919C20.0484 19.9257 19.868 20.3142 19.5912 20.591C19.3144 20.8678 18.9259 21.0482 18.1921 21.1469C17.4367 21.2484 16.4356 21.25 15.0002 21.25H14.0002C12.5648 21.25 11.5637 21.2484 10.8083 21.1469C10.0746 21.0482 9.68599 20.8678 9.40922 20.591C9.16577 20.3475 8.99859 20.0195 8.89448 19.4527C8.78643 18.8644 8.75803 18.0893 8.75194 16.9958C8.74964 16.5816 8.41199 16.2477 7.99778 16.25C7.58357 16.2523 7.24966 16.59 7.25196 17.0042C7.25799 18.0857 7.28387 18.9871 7.41916 19.7236C7.55839 20.4816 7.82363 21.1267 8.34856 21.6517C8.95048 22.2536 9.70836 22.5125 10.6085 22.6335C11.4754 22.75 12.5778 22.75 13.9453 22.75H15.0551C16.4227 22.75 17.525 22.75 18.392 22.6335C19.2921 22.5125 20.0499 22.2536 20.6519 21.6517C21.2538 21.0497 21.5127 20.2919 21.6337 19.3918C21.7503 18.5248 21.7502 17.4225 21.7502 16.0549V7.94513C21.7502 6.57754 21.7503 5.47522 21.6337 4.60825C21.5127 3.70814 21.2538 2.95027 20.6519 2.34835C20.0499 1.74643 19.2921 1.48754 18.392 1.36652C17.525 1.24996 16.4227 1.24998 15.0551 1.25H13.9453Z" fill="#F6F7FB"/>
<path d="M12.4697 8.53033C12.1768 8.23744 12.1768 7.76256 12.4697 7.46967C12.7626 7.17678 13.2374 7.17678 13.5303 7.46967L17.5303 11.4697C17.671 11.6103 17.75 11.8011 17.75 12C17.75 12.1989 17.671 12.3897 17.5303 12.5303L13.5303 16.5303C13.2374 16.8232 12.7626 16.8232 12.4697 16.5303C12.1768 16.2374 12.1768 15.7626 12.4697 15.4697L15.1893 12.75L3 12.75C2.58579 12.75 2.25 12.4142 2.25 12C2.25 11.5858 2.58579 11.25 3 11.25L15.1893 11.25L12.4697 8.53033Z" fill="#F6F7FB"/>
</svg>
