<svg width="24" height="24" viewBox="0 0 24 24" fill="none" xmlns="http://www.w3.org/2000/svg">
<path d="M22.75 4.93298V16.144C22.75 17.68 21.506 18.879 20.032 18.971C19.073 19.031 17.994 19.147 17.191 19.359C16.199 19.621 14.971 20.203 13.98 20.731C12.747 21.389 11.253 21.389 10.02 20.731C9.029 20.203 7.801 19.621 6.809 19.359C6.006 19.147 4.927 19.031 3.968 18.971C2.494 18.879 1.25 17.68 1.25 16.144V4.99798C1.25 3.49898 2.47 2.23098 4.028 2.32598C5.015 2.38698 6.231 2.50898 7.191 2.76198C8.328 3.06198 9.637 3.68598 10.633 4.21198C11.462 4.65098 12.48 4.62698 13.298 4.15398C14.171 3.64898 15.29 3.06698 16.285 2.76898C17.43 2.42598 18.917 2.30798 20.056 2.26798C21.585 2.21498 22.75 3.46998 22.75 4.93298ZM20.108 3.76698C18.989 3.80598 17.664 3.92198 16.715 4.20598C15.895 4.45198 14.9 4.95998 14.05 5.45198C13.642 5.68798 13.202 5.85198 12.75 5.94198V19.619C12.931 19.568 13.106 19.497 13.275 19.407C14.283 18.87 15.638 18.217 16.809 17.908C17.759 17.657 18.958 17.536 19.938 17.474C20.682 17.428 21.25 16.829 21.25 16.144V4.93298C21.25 4.25198 20.723 3.74598 20.108 3.76698ZM11.25 5.97498C10.795 5.90398 10.349 5.75898 9.932 5.53898C8.955 5.02198 7.771 4.46698 6.809 4.21298C5.996 3.99798 4.902 3.88298 3.936 3.82398C3.302 3.78498 2.75 4.30098 2.75 4.99798V16.144C2.75 16.829 3.318 17.428 4.062 17.474C5.042 17.536 6.241 17.657 7.191 17.908C8.362 18.217 9.717 18.87 10.725 19.407C10.894 19.497 11.069 19.568 11.25 19.619V5.97498Z" fill="#F6F7FB"/>
</svg>
