<svg width="24" height="24" viewBox="0 0 24 24" fill="none" xmlns="http://www.w3.org/2000/svg">
<path d="M17.75 15C17.75 15.414 17.414 15.75 17 15.75H12C11.586 15.75 11.25 15.414 11.25 15C11.25 14.586 11.586 14.25 12 14.25H17C17.414 14.25 17.75 14.586 17.75 15Z" fill="#F6F7FB"/>
<path d="M7.47997 9.42397C7.16197 9.15897 6.68897 9.20197 6.42397 9.51997C6.15897 9.83797 6.20197 10.311 6.51997 10.576L6.75397 10.771C7.41297 11.32 7.84297 11.681 8.11997 11.987C8.38197 12.278 8.40697 12.414 8.40697 12.5C8.40697 12.586 8.38197 12.722 8.11997 13.013C7.84297 13.319 7.41297 13.68 6.75397 14.229L6.51997 14.424C6.20197 14.689 6.15897 15.162 6.42397 15.48C6.68897 15.798 7.16197 15.841 7.47997 15.576L7.75697 15.346C8.36197 14.842 8.87697 14.413 9.23297 14.018C9.61097 13.599 9.90697 13.117 9.90697 12.5C9.90697 11.883 9.61097 11.401 9.23297 10.982C8.87697 10.587 8.36197 10.158 7.75697 9.65397L7.47997 9.42397Z" fill="#F6F7FB"/>
<path d="M12.057 1.25C14.366 1.25 16.175 1.25 17.586 1.44C19.031 1.634 20.171 2.039 21.066 2.934C21.961 3.829 22.366 4.969 22.56 6.414C22.75 7.825 22.75 9.634 22.75 11.943V12.057C22.75 14.366 22.75 16.175 22.56 17.586C22.366 19.031 21.961 20.171 21.066 21.066C20.171 21.961 19.031 22.366 17.586 22.56C16.175 22.75 14.366 22.75 12.057 22.75H11.943C9.634 22.75 7.825 22.75 6.414 22.56C4.969 22.366 3.829 21.961 2.934 21.066C2.039 20.171 1.634 19.031 1.44 17.586C1.25 16.175 1.25 14.366 1.25 12.057V11.943C1.25 9.634 1.25 7.825 1.44 6.414C1.634 4.969 2.039 3.829 2.934 2.934C3.829 2.039 4.969 1.634 6.414 1.44C7.825 1.25 9.634 1.25 11.943 1.25H12.057ZM6.614 2.926C5.335 3.098 4.564 3.425 3.995 3.995C3.425 4.564 3.098 5.335 2.926 6.614C2.752 7.914 2.75 9.622 2.75 12C2.75 14.378 2.752 16.086 2.926 17.386C3.098 18.665 3.425 19.435 3.995 20.005C4.564 20.575 5.335 20.902 6.614 21.074C7.914 21.248 9.622 21.25 12 21.25C14.378 21.25 16.086 21.248 17.386 21.074C18.665 20.902 19.435 20.575 20.005 20.005C20.575 19.435 20.902 18.665 21.074 17.386C21.248 16.086 21.25 14.378 21.25 12C21.25 9.622 21.248 7.914 21.074 6.614C20.902 5.335 20.575 4.564 20.005 3.995C19.435 3.425 18.665 3.098 17.386 2.926C16.086 2.752 14.378 2.75 12 2.75C9.622 2.75 7.914 2.752 6.614 2.926Z" fill="#F6F7FB"/>
</svg>
