<svg width="24" height="24" viewBox="0 0 24 24" fill="none" xmlns="http://www.w3.org/2000/svg">
<path d="M12 18.9999C15.26 18.9999 18.002 16.7699 18.779 13.7509C18.917 13.2159 19.462 12.8939 19.997 13.0319C20.532 13.1689 20.854 13.7139 20.716 14.2489C19.717 18.1309 16.195 20.9999 12 20.9999C9.259 20.9999 6.805 19.7739 5.156 17.8439L3 19.9999V13.9999H9L6.575 16.4249C7.86 17.9979 9.813 18.9999 12 18.9999Z" fill="#F6F7FB"/>
<path d="M4.00301 10.968C3.46801 10.831 3.14601 10.286 3.28401 9.751C4.28301 5.869 7.80501 3 12 3C14.741 3 17.195 4.225 18.844 6.156L21 4V10H15L17.425 7.575C16.14 6.002 14.187 5 12 5C8.74001 5 5.99801 7.23 5.22001 10.249C5.08301 10.784 4.53801 11.106 4.00301 10.968Z" fill="#F6F7FB"/>
</svg>
