<svg width="32" height="32" viewBox="0 0 32 32" fill="none" xmlns="http://www.w3.org/2000/svg">
<path d="M20.667 18.667L27.32 25.333L25.333 27.32L18.667 20.667V19.613L18.307 19.24C16.787 20.547 14.813 21.333 12.667 21.333C7.88 21.333 4 17.453 4 12.667C4 7.88 7.88 4 12.667 4C17.453 4 21.333 7.88 21.333 12.667C21.333 14.813 20.547 16.787 19.24 18.307L19.613 18.667H20.667ZM12.667 18.667C15.987 18.667 18.667 15.987 18.667 12.667C18.667 9.347 15.987 6.667 12.667 6.667C9.347 6.667 6.667 9.347 6.667 12.667C6.667 15.987 9.347 18.667 12.667 18.667Z" fill="#F6F7FB"/>
</svg>
