<svg width="24" height="24" viewBox="0 0 24 24" fill="none" xmlns="http://www.w3.org/2000/svg">
<path d="M12 8.25C14.071 8.25 15.75 9.929 15.75 12C15.75 14.071 14.071 15.75 12 15.75C9.929 15.75 8.25 14.071 8.25 12C8.25 9.929 9.929 8.25 12 8.25ZM9.75 12C9.75 13.243 10.757 14.25 12 14.25C13.243 14.25 14.25 13.243 14.25 12C14.25 10.757 13.243 9.75 12 9.75C10.757 9.75 9.75 10.757 9.75 12Z" fill="#F6F7FB"/>
<path d="M11.975 1.25H12.025C12.47 1.25 12.841 1.25 13.145 1.271C13.462 1.292 13.762 1.339 14.052 1.459C14.726 1.738 15.262 2.274 15.541 2.948C15.686 3.298 15.725 3.668 15.74 4.07C15.752 4.393 15.915 4.663 16.156 4.801C16.397 4.94 16.712 4.947 16.997 4.796C17.353 4.608 17.693 4.457 18.069 4.407C18.792 4.312 19.524 4.508 20.102 4.952C20.352 5.144 20.542 5.38 20.719 5.643C20.889 5.897 21.075 6.218 21.297 6.603L21.322 6.647C21.545 7.032 21.73 7.353 21.865 7.627C22.004 7.913 22.114 8.195 22.155 8.507C22.25 9.23 22.054 9.961 21.61 10.54C21.379 10.841 21.078 11.06 20.738 11.274C20.464 11.446 20.312 11.722 20.312 12C20.312 12.278 20.464 12.554 20.738 12.726C21.078 12.94 21.379 13.159 21.61 13.46C22.054 14.038 22.25 14.77 22.155 15.493C22.114 15.804 22.004 16.087 21.864 16.373C21.73 16.647 21.545 16.968 21.322 17.353L21.297 17.397C21.075 17.782 20.889 18.103 20.719 18.357C20.542 18.62 20.352 18.856 20.102 19.048C19.524 19.492 18.792 19.688 18.069 19.592C17.693 19.543 17.353 19.392 16.997 19.204C16.712 19.053 16.397 19.06 16.156 19.198C15.915 19.337 15.752 19.607 15.74 19.93C15.725 20.332 15.686 20.702 15.541 21.052C15.262 21.726 14.726 22.262 14.052 22.541C13.762 22.661 13.462 22.708 13.145 22.729C12.841 22.75 12.47 22.75 12.025 22.75H11.975C11.53 22.75 11.159 22.75 10.855 22.729C10.538 22.708 10.238 22.661 9.94798 22.541C9.27398 22.262 8.73798 21.726 8.45898 21.052C8.31398 20.702 8.27498 20.332 8.25998 19.93C8.24798 19.607 8.08498 19.337 7.84398 19.199C7.60298 19.06 7.28798 19.053 7.00298 19.204C6.64698 19.392 6.30698 19.543 5.93098 19.593C5.20798 19.688 4.47598 19.492 3.89798 19.048C3.64798 18.856 3.45798 18.62 3.28098 18.357C3.11098 18.103 2.92498 17.782 2.70298 17.397L2.67798 17.353C2.45498 16.968 2.26998 16.647 2.13598 16.373C1.99598 16.087 1.88598 15.804 1.84498 15.493C1.74998 14.77 1.94598 14.038 2.38998 13.46C2.62098 13.159 2.92198 12.94 3.26198 12.726C3.53598 12.554 3.68798 12.278 3.68798 12C3.68798 11.722 3.53598 11.446 3.26198 11.274C2.92198 11.06 2.62098 10.841 2.38998 10.54C1.94598 9.961 1.74998 9.23 1.84498 8.507C1.88598 8.195 1.99598 7.913 2.13598 7.627C2.26998 7.353 2.45498 7.032 2.67798 6.647L2.70298 6.603C2.92498 6.218 3.11098 5.897 3.28098 5.643C3.45798 5.38 3.64798 5.144 3.89798 4.952C4.47598 4.508 5.20798 4.312 5.93098 4.407C6.30698 4.457 6.64698 4.608 7.00298 4.796C7.28798 4.947 7.60298 4.94 7.84398 4.801C8.08498 4.663 8.24798 4.393 8.25998 4.07C8.27498 3.668 8.31398 3.298 8.45898 2.948C8.73798 2.274 9.27398 1.738 9.94798 1.459C10.238 1.339 10.538 1.292 10.855 1.271C11.159 1.25 11.53 1.25 11.975 1.25ZM10.522 2.845C10.215 2.972 9.97198 3.215 9.84498 3.522C9.80498 3.618 9.77198 3.769 9.75898 4.126C9.72898 4.918 9.31998 5.681 8.59398 6.1C7.86798 6.52 7.00298 6.492 6.30198 6.122C5.98598 5.955 5.83898 5.908 5.73498 5.895C5.40598 5.851 5.07398 5.94 4.81098 6.142C4.74498 6.193 4.66098 6.28 4.52598 6.48C4.38798 6.686 4.22698 6.963 3.98898 7.375C3.75098 7.787 3.59198 8.064 3.48298 8.287C3.37698 8.504 3.34298 8.62 3.33298 8.703C3.28898 9.031 3.37798 9.364 3.57998 9.627C3.64398 9.71 3.75798 9.814 4.05998 10.004C4.73198 10.426 5.18798 11.162 5.18798 12C5.18798 12.838 4.73198 13.574 4.05998 13.996C3.75798 14.186 3.64398 14.29 3.57998 14.373C3.37798 14.636 3.28898 14.968 3.33198 15.297C3.34298 15.38 3.37598 15.496 3.48298 15.713C3.59198 15.936 3.75098 16.213 3.98898 16.625C4.22698 17.037 4.38798 17.314 4.52598 17.52C4.65998 17.72 4.74498 17.807 4.81098 17.858C5.07398 18.059 5.40598 18.149 5.73498 18.105C5.83898 18.092 5.98598 18.045 6.30198 17.878C7.00298 17.508 7.86798 17.48 8.59398 17.899C9.31998 18.319 9.72898 19.082 9.75898 19.874C9.77198 20.231 9.80498 20.382 9.84498 20.478C9.97198 20.785 10.215 21.028 10.522 21.155C10.599 21.187 10.716 21.216 10.957 21.233C11.204 21.25 11.524 21.25 12 21.25C12.476 21.25 12.796 21.25 13.043 21.233C13.284 21.216 13.401 21.187 13.478 21.155C13.785 21.028 14.028 20.785 14.155 20.478C14.195 20.382 14.228 20.231 14.241 19.874C14.271 19.082 14.68 18.319 15.406 17.899C16.132 17.48 16.997 17.507 17.698 17.878C18.014 18.045 18.161 18.092 18.265 18.105C18.594 18.149 18.926 18.059 19.189 17.858C19.255 17.807 19.339 17.72 19.474 17.52C19.612 17.314 19.772 17.037 20.011 16.625C20.249 16.212 20.408 15.936 20.517 15.713C20.623 15.496 20.656 15.38 20.667 15.297C20.711 14.968 20.622 14.636 20.42 14.373C20.356 14.29 20.242 14.186 19.94 13.996C19.268 13.574 18.812 12.838 18.812 12C18.812 11.162 19.268 10.426 19.94 10.004C20.242 9.814 20.356 9.71 20.42 9.627C20.622 9.364 20.711 9.032 20.667 8.703C20.657 8.62 20.624 8.504 20.517 8.287C20.408 8.064 20.249 7.787 20.011 7.375C19.773 6.963 19.612 6.686 19.474 6.48C19.34 6.28 19.255 6.193 19.189 6.142C18.926 5.94 18.594 5.851 18.265 5.895C18.161 5.908 18.014 5.955 17.698 6.122C16.997 6.492 16.132 6.52 15.406 6.1C14.68 5.681 14.271 4.918 14.241 4.126C14.228 3.769 14.195 3.618 14.155 3.522C14.028 3.215 13.785 2.972 13.478 2.845C13.401 2.813 13.284 2.784 13.043 2.767C12.796 2.75 12.476 2.75 12 2.75C11.524 2.75 11.204 2.75 10.957 2.767C10.716 2.784 10.599 2.813 10.522 2.845Z" fill="#F6F7FB"/>
</svg>
