<svg width="32" height="32" viewBox="0 0 32 32" fill="none" xmlns="http://www.w3.org/2000/svg">
<path d="M18.742 3C21.192 3 23.133 3 24.652 3.204C26.215 3.414 27.481 3.857 28.478 4.855C29.476 5.853 29.919 7.118 30.129 8.681C30.333 10.2 30.333 12.141 30.333 14.591V17.409C30.333 19.859 30.333 21.8 30.129 23.319C29.919 24.882 29.476 26.147 28.478 27.145C27.481 28.143 26.215 28.586 24.652 28.796C23.133 29 21.192 29 18.742 29H13.258C12.839 29 12.435 29 12.045 28.999C12.03 29 12.015 29 12 29C11.983 29 11.966 29 11.949 28.999C10.104 28.993 8.58599 28.962 7.34799 28.796C5.78499 28.586 4.51999 28.143 3.52199 27.145C2.52399 26.147 2.08099 24.882 1.87099 23.319C1.66699 21.8 1.66699 19.859 1.66699 17.409V14.591C1.66699 12.141 1.66699 10.2 1.87099 8.681C2.08099 7.118 2.52399 5.853 3.52199 4.855C4.51999 3.857 5.78499 3.414 7.34799 3.204C8.58599 3.038 10.104 3.007 11.949 3.001C11.966 3 11.983 3 12 3C12.015 3 12.03 3 12.045 3.001C12.431 3 12.831 3 13.246 3H18.742ZM13 5V27H18.667C21.209 27 23.015 26.998 24.386 26.814C25.727 26.633 26.5 26.295 27.064 25.731C27.628 25.167 27.967 24.394 28.147 23.052C28.331 21.682 28.333 19.876 28.333 17.333V14.667C28.333 12.124 28.331 10.318 28.147 8.948C27.967 7.606 27.628 6.833 27.064 6.269C26.5 5.705 25.727 5.367 24.386 5.186C23.015 5.002 21.209 5 18.667 5H13.333C13.221 5 13.11 5 13 5ZM11 26.992V5.008C9.62199 5.022 8.52199 5.064 7.61499 5.186C6.27299 5.367 5.49999 5.705 4.93599 6.269C4.37199 6.833 4.03299 7.606 3.85299 8.948C3.66899 10.318 3.66699 12.124 3.66699 14.667V17.333C3.66699 19.876 3.66899 21.682 3.85299 23.052C4.03299 24.394 4.37199 25.167 4.93599 25.731C5.49999 26.295 6.27299 26.633 7.61499 26.814C8.52199 26.936 9.62199 26.978 11 26.992Z" fill="#F6F7FB"/>
<path d="M12.198 5.65698V25.437C12.198 25.989 12.0027 26.4603 11.612 26.851C11.222 27.2416 10.7507 27.437 10.198 27.437C9.646 27.437 9.17467 27.2416 8.784 26.851C8.39333 26.4603 8.198 25.989 8.198 25.437V5.65698C8.198 5.10498 8.39333 4.63365 8.784 4.24298C9.17467 3.85232 9.646 3.65698 10.198 3.65698C10.7507 3.65698 11.222 3.85232 11.612 4.24298C12.0027 4.63365 12.198 5.10498 12.198 5.65698Z" fill="#F6F7FB"/>
<path d="M9.60095 6.59692V26.7079C9.60095 27.2599 9.40595 27.7313 9.01595 28.1219C8.62529 28.5126 8.15362 28.7079 7.60095 28.7079C7.04895 28.7079 6.57762 28.5126 6.18695 28.1219C5.79629 27.7313 5.60095 27.2599 5.60095 26.7079V6.59692C5.60095 6.04426 5.79629 5.57259 6.18695 5.18192C6.57762 4.79192 7.04895 4.59692 7.60095 4.59692C8.15362 4.59692 8.62529 4.79192 9.01595 5.18192C9.40595 5.57259 9.60095 6.04426 9.60095 6.59692Z" fill="#F6F7FB"/>
<path d="M7.33606 6.32007V24.8291C7.33606 25.3817 7.14073 25.8531 6.75006 26.2431C6.36006 26.6337 5.88873 26.8291 5.33606 26.8291C4.78406 26.8291 4.31273 26.6337 3.92206 26.2431C3.53139 25.8531 3.33606 25.3817 3.33606 24.8291V6.32007C3.33606 5.76807 3.53139 5.29673 3.92206 4.90607C4.31273 4.5154 4.78406 4.32007 5.33606 4.32007C5.88873 4.32007 6.36006 4.5154 6.75006 4.90607C7.14073 5.29673 7.33606 5.76807 7.33606 6.32007Z" fill="#F6F7FB"/>
</svg>
