<svg width="32" height="32" viewBox="0 0 32 32" fill="none" xmlns="http://www.w3.org/2000/svg">
<path d="M20.583 24V9.851L16.538 14.022C16.394 14.1707 16.2187 14.2467 16.012 14.25C15.8047 14.2533 15.6267 14.1827 15.478 14.038C15.3293 13.894 15.2533 13.7187 15.25 13.512C15.2467 13.3047 15.3173 13.1267 15.462 12.978L20.786 7.487C20.7913 7.481 20.797 7.47533 20.803 7.47C20.8743 7.398 20.9533 7.34367 21.04 7.307C21.0433 7.30567 21.047 7.30433 21.051 7.303C21.1377 7.26767 21.2317 7.25 21.333 7.25C21.4343 7.25 21.5287 7.26767 21.616 7.303C21.6193 7.30433 21.623 7.30567 21.627 7.307C21.7137 7.34367 21.7927 7.398 21.864 7.47C21.8693 7.47533 21.875 7.481 21.881 7.487L27.205 12.978C27.349 13.1267 27.4197 13.3047 27.417 13.512C27.4137 13.7187 27.3377 13.894 27.189 14.038C27.0403 14.1827 26.8623 14.2533 26.655 14.25C26.4477 14.2467 26.272 14.1707 26.128 14.022L22.083 9.851V24C22.083 24.2073 22.01 24.384 21.864 24.53C21.7173 24.6767 21.5403 24.75 21.333 24.75C21.1263 24.75 20.9497 24.6767 20.803 24.53C20.6563 24.384 20.583 24.2073 20.583 24Z" fill="#F6F7FB"/>
<path d="M11.417 8V24C11.417 24.2073 11.3436 24.384 11.197 24.53C11.0503 24.6767 10.8736 24.75 10.667 24.75C10.4596 24.75 10.2826 24.6767 10.136 24.53C9.98996 24.384 9.91696 24.2073 9.91696 24V8C9.91696 7.79267 9.98996 7.616 10.136 7.47C10.2826 7.32333 10.4596 7.25 10.667 7.25C10.8736 7.25 11.0503 7.32333 11.197 7.47C11.3436 7.616 11.417 7.79267 11.417 8ZM10.128 23.478L15.462 17.978C15.606 17.8293 15.7813 17.7533 15.988 17.75C16.1953 17.7467 16.3733 17.8173 16.522 17.962C16.6706 18.106 16.7466 18.2813 16.75 18.488C16.7533 18.6953 16.6826 18.8733 16.538 19.022L11.205 24.522C11.061 24.6707 10.8853 24.7467 10.678 24.75C10.4713 24.7533 10.2936 24.6827 10.145 24.538C9.99629 24.394 9.92029 24.2187 9.91696 24.012C9.91362 23.8047 9.98396 23.6267 10.128 23.478ZM10.128 24.522L4.79496 19.022C4.65096 18.8733 4.58029 18.6953 4.58296 18.488C4.58629 18.2813 4.66229 18.106 4.81096 17.962C4.95962 17.8173 5.13762 17.7467 5.34496 17.75C5.55162 17.7533 5.72729 17.8293 5.87196 17.978L11.205 23.478C11.349 23.6267 11.4196 23.8047 11.417 24.012C11.4136 24.2187 11.3376 24.394 11.189 24.538C11.0403 24.6827 10.8623 24.7533 10.655 24.75C10.4483 24.7467 10.2726 24.6707 10.128 24.522Z" fill="#F6F7FB"/>
</svg>
