<svg width="24" height="24" viewBox="0 0 24 24" fill="none" xmlns="http://www.w3.org/2000/svg">
<path d="M11.9999 2.75C11.0209 2.75 10.1869 3.375 9.87794 4.25C9.73994 4.64 9.31094 4.845 8.92094 4.707C8.52994 4.569 8.32494 4.141 8.46294 3.75C8.97794 2.295 10.3659 1.25 11.9999 1.25C13.6339 1.25 15.0219 2.295 15.5359 3.75C15.6739 4.141 15.4699 4.569 15.0789 4.707C14.6889 4.845 14.2599 4.64 14.1219 4.25C13.8129 3.375 12.9779 2.75 11.9999 2.75Z" fill="#F27872"/>
<path d="M2.75 6C2.75 5.586 3.086 5.25 3.5 5.25H20.5C20.914 5.25 21.25 5.586 21.25 6C21.25 6.414 20.914 6.75 20.5 6.75H3.5C3.086 6.75 2.75 6.414 2.75 6Z" fill="#F27872"/>
<path d="M5.91501 8.44999C5.88701 8.03699 5.53001 7.72399 5.11701 7.75199C4.70301 7.77899 4.39101 8.13699 4.41801 8.54999L4.88201 15.502C4.96701 16.784 5.03601 17.82 5.19801 18.634C5.36701 19.479 5.65301 20.185 6.24501 20.738C6.83601 21.292 7.56001 21.531 8.41401 21.642C9.23701 21.75 10.275 21.75 11.56 21.75H12.439C13.725 21.75 14.763 21.75 15.585 21.642C16.44 21.531 17.164 21.292 17.755 20.738C18.347 20.185 18.633 19.479 18.802 18.634C18.964 17.82 19.033 16.784 19.118 15.502L19.582 8.54999C19.609 8.13699 19.297 7.77899 18.883 7.75199C18.47 7.72399 18.113 8.03699 18.085 8.44999L17.625 15.349C17.535 16.697 17.471 17.635 17.331 18.34C17.194 19.025 17.004 19.387 16.73 19.643C16.457 19.899 16.083 20.065 15.391 20.155C14.678 20.248 13.738 20.25 12.387 20.25H11.613C10.262 20.25 9.32201 20.248 8.60901 20.155C7.91701 20.065 7.54301 19.899 7.26901 19.643C6.99601 19.387 6.80601 19.025 6.66901 18.34C6.52901 17.635 6.46501 16.697 6.37501 15.349L5.91501 8.44999Z" fill="#F27872"/>
<path d="M9.42503 10.254C9.83703 10.213 10.205 10.513 10.246 10.925L10.746 15.925C10.787 16.337 10.487 16.705 10.075 16.746C9.66203 16.788 9.29503 16.487 9.25403 16.075L8.75403 11.075C8.71203 10.662 9.01303 10.295 9.42503 10.254Z" fill="#F27872"/>
<path d="M15.246 11.075C15.287 10.662 14.987 10.295 14.575 10.254C14.162 10.213 13.795 10.513 13.754 10.925L13.254 15.925C13.213 16.337 13.513 16.705 13.925 16.746C14.338 16.788 14.705 16.487 14.746 16.075L15.246 11.075Z" fill="#F27872"/>
</svg>
